<svg width="32" height="32" viewBox="0 0 32 32" fill="none" xmlns="http://www.w3.org/2000/svg">
<rect x="0.5" y="0.5" width="31" height="31" rx="6.5" fill="white" stroke="#F8F8F8"/>
<mask id="path-2-inside-1_20_10" fill="white">
<path d="M16.0391 22.4872C15.9714 22.4861 15.9051 22.4678 15.8465 22.4341C15.7734 22.4009 14.1266 21.4645 12.4531 19.9638C10.1621 17.8985 9 15.8466 9 13.8544C8.9994 13.0301 9.26323 12.2274 9.75272 11.5643C10.2422 10.9011 10.9315 10.4125 11.7194 10.1702C12.5072 9.92788 13.352 9.94471 14.1295 10.2182C14.9071 10.4917 15.5764 11.0074 16.0391 11.6895C16.5017 11.0074 17.1711 10.4917 17.9486 10.2182C18.7262 9.94471 19.5709 9.92788 20.3588 10.1702C21.1466 10.4125 21.8359 10.9011 22.3254 11.5643C22.8149 12.2274 23.0787 13.0301 23.0781 13.8544C23.0781 15.8466 21.916 17.8985 19.625 19.9638C17.9516 21.4645 16.3047 22.4009 16.2316 22.4341C16.173 22.4678 16.1067 22.4861 16.0391 22.4872ZM12.8516 10.7997C12.0414 10.7997 11.2644 11.1215 10.6916 11.6944C10.1187 12.2673 9.79688 13.0442 9.79688 13.8544C9.79688 17.6595 14.9633 20.9798 16.0391 21.6239C17.1148 20.9798 22.2813 17.6595 22.2813 13.8544C22.2828 13.1471 22.0388 12.4611 21.591 11.9136C21.1432 11.3662 20.5192 10.991 19.8256 10.8523C19.1321 10.7136 18.4118 10.8199 17.7879 11.153C17.1639 11.4862 16.6749 12.0255 16.4043 12.679C16.3757 12.7526 16.3255 12.8159 16.2604 12.8605C16.1952 12.9051 16.118 12.929 16.0391 12.929C15.9601 12.929 15.8829 12.9051 15.8178 12.8605C15.7526 12.8159 15.7024 12.7526 15.6738 12.679C15.4416 12.122 15.0497 11.6463 14.5474 11.3118C14.0451 10.9773 13.455 10.7991 12.8516 10.7997Z"/>
</mask>
<path d="M16.0391 22.4872L16.0075 24.4869L16.0391 24.4874L16.0706 24.4869L16.0391 22.4872ZM15.8465 22.4341L16.8447 20.701L16.7615 20.6531L16.6741 20.6133L15.8465 22.4341ZM12.4531 19.9638L11.114 21.4493L11.1178 21.4527L12.4531 19.9638ZM9 13.8544L11 13.8544L11 13.8529L9 13.8544ZM16.0391 11.6895L14.3839 12.8122L16.0391 15.2524L17.6942 12.8122L16.0391 11.6895ZM23.0781 13.8544L21.0781 13.8529V13.8544L23.0781 13.8544ZM19.625 19.9638L20.9603 21.4527L20.9641 21.4493L19.625 19.9638ZM16.2316 22.4341L15.404 20.6133L15.3166 20.6531L15.2334 20.701L16.2316 22.4341ZM12.8516 10.7997L12.8516 12.7997L12.8534 12.7997L12.8516 10.7997ZM9.79688 13.8544H7.79688H9.79688ZM16.0391 21.6239L15.0116 23.3398L16.0391 23.955L17.0665 23.3398L16.0391 21.6239ZM22.2813 13.8544L20.2813 13.85V13.8544H22.2813ZM16.4043 12.679L14.5565 11.9138L14.5479 11.9344L14.5399 11.9551L16.4043 12.679ZM16.0391 12.929L16.0391 10.929L16.0391 12.929ZM15.6738 12.679L17.5382 11.9551L17.5293 11.9322L17.5198 11.9094L15.6738 12.679ZM16.0706 20.4874C16.3426 20.4917 16.609 20.5652 16.8447 20.701L14.8483 24.1671C15.2013 24.3705 15.6002 24.4805 16.0075 24.4869L16.0706 20.4874ZM16.6741 20.6133C16.7878 20.665 16.7835 20.672 16.5591 20.5357C16.394 20.4355 16.1564 20.2859 15.8699 20.0922C15.2938 19.7029 14.5403 19.1491 13.7884 18.4748L11.1178 21.4527C12.0394 22.2792 12.946 22.944 13.63 23.4063C14.2579 23.8307 14.8125 24.161 15.0189 24.2548L16.6741 20.6133ZM13.7922 18.4782C11.6915 16.5845 11 15.0304 11 13.8544H7C7 16.6627 8.63271 19.2125 11.114 21.4493L13.7922 18.4782ZM11 13.8529C10.9997 13.4567 11.1265 13.0708 11.3619 12.752L8.14359 10.3765C7.39992 11.3841 6.99909 12.6036 7 13.8558L11 13.8529ZM11.3619 12.752C11.5972 12.4332 11.9285 12.1983 12.3073 12.0818L11.1314 8.25853C9.93452 8.62665 8.88725 9.36902 8.14359 10.3765L11.3619 12.752ZM12.3073 12.0818C12.686 11.9653 13.0921 11.9734 13.4659 12.1049L14.7931 8.3315C13.6118 7.916 12.3284 7.89042 11.1314 8.25853L12.3073 12.0818ZM13.4659 12.1049C13.8397 12.2364 14.1615 12.4843 14.3839 12.8122L17.6942 10.5669C16.9913 9.53051 15.9744 8.747 14.7931 8.3315L13.4659 12.1049ZM17.6942 12.8122C17.9167 12.4843 18.2384 12.2364 18.6122 12.1049L17.285 8.3315C16.1037 8.747 15.0868 9.53051 14.3839 10.5669L17.6942 12.8122ZM18.6122 12.1049C18.986 11.9734 19.3921 11.9653 19.7708 12.0818L20.9467 8.25853C19.7498 7.89042 18.4663 7.916 17.285 8.3315L18.6122 12.1049ZM19.7708 12.0818C20.1496 12.1983 20.481 12.4332 20.7163 12.752L23.9345 10.3765C23.1909 9.36902 22.1436 8.62664 20.9467 8.25853L19.7708 12.0818ZM20.7163 12.752C20.9516 13.0708 21.0784 13.4567 21.0781 13.8529L25.0781 13.8558C25.079 12.6036 24.6782 11.3841 23.9345 10.3765L20.7163 12.752ZM21.0781 13.8544C21.0781 15.0304 20.3866 16.5845 18.2859 18.4782L20.9641 21.4493C23.4454 19.2125 25.0781 16.6627 25.0781 13.8544L21.0781 13.8544ZM18.2897 18.4748C17.5378 19.1491 16.7843 19.7029 16.2082 20.0922C15.9217 20.2859 15.6841 20.4355 15.5191 20.5357C15.2947 20.672 15.2903 20.665 15.404 20.6133L17.0592 24.2548C17.2656 24.161 17.8202 23.8307 18.4481 23.4063C19.1321 22.944 20.0388 22.2792 20.9603 21.4527L18.2897 18.4748ZM15.2334 20.701C15.4691 20.5652 15.7355 20.4917 16.0075 20.4874L16.0706 24.4869C16.4779 24.4805 16.8769 24.3705 17.2298 24.1671L15.2334 20.701ZM12.8516 8.79969C11.511 8.79969 10.2253 9.33224 9.27736 10.2802L12.1058 13.1086C12.3036 12.9108 12.5718 12.7997 12.8516 12.7997L12.8516 8.79969ZM9.27736 10.2802C8.32942 11.2281 7.79688 12.5138 7.79688 13.8544L11.7969 13.8544C11.7969 13.5747 11.908 13.3064 12.1058 13.1086L9.27736 10.2802ZM7.79688 13.8544C7.79688 16.614 9.61669 18.8968 11.1205 20.3586C12.7043 21.8981 14.4121 22.9808 15.0116 23.3398L17.0665 19.908C16.5903 19.6229 15.177 18.7234 13.9086 17.4904C12.5603 16.1797 11.7969 14.8999 11.7969 13.8544H7.79688ZM17.0665 23.3398C17.6661 22.9808 19.3739 21.8981 20.9576 20.3586C22.4614 18.8968 24.2813 16.614 24.2813 13.8544H20.2813C20.2813 14.8999 19.5179 16.1797 18.1695 17.4904C16.9011 18.7234 15.4878 19.6229 15.0116 19.908L17.0665 23.3398ZM24.2812 13.8587C24.2838 12.6883 23.8801 11.5533 23.1391 10.6474L20.0429 13.1799C20.1976 13.369 20.2818 13.6058 20.2813 13.85L24.2812 13.8587ZM23.1391 10.6474C22.398 9.74141 21.3656 9.12071 20.2179 8.89117L19.4334 12.8135C19.6729 12.8614 19.8883 12.9909 20.0429 13.1799L23.1391 10.6474ZM20.2179 8.89117C19.0702 8.66163 17.8784 8.83749 16.8459 9.38873L18.7298 12.9173C18.9453 12.8023 19.1939 12.7656 19.4334 12.8135L20.2179 8.89117ZM16.8459 9.38873C15.8135 9.93997 15.0043 10.8324 14.5565 11.9138L18.2521 13.4442C18.3456 13.2185 18.5144 13.0323 18.7298 12.9173L16.8459 9.38873ZM14.5399 11.9551C14.6572 11.6529 14.8632 11.3932 15.1307 11.2101L17.39 14.5109C17.7879 14.2386 18.0942 13.8523 18.2687 13.4029L14.5399 11.9551ZM15.1307 11.2101C15.3982 11.027 15.7149 10.929 16.0391 10.929L16.0391 14.929C16.5212 14.929 16.9921 14.7833 17.39 14.5109L15.1307 11.2101ZM16.0391 10.929C16.3633 10.929 16.6799 11.027 16.9474 11.2101L14.6881 14.5109C15.086 14.7833 15.5569 14.929 16.0391 14.929L16.0391 10.929ZM16.9474 11.2101C17.215 11.3932 17.4209 11.6529 17.5382 11.9551L13.8094 13.4029C13.9839 13.8523 14.2902 14.2386 14.6881 14.5109L16.9474 11.2101ZM17.5198 11.9094C17.1356 10.9878 16.487 10.2005 15.6559 9.6471L13.4389 12.9765C13.6123 13.092 13.7476 13.2562 13.8278 13.4486L17.5198 11.9094ZM15.6559 9.6471C14.8247 9.09366 13.8483 8.79879 12.8498 8.79969L12.8534 12.7997C13.0617 12.7995 13.2655 12.861 13.4389 12.9765L15.6559 9.6471Z" fill="#E6E6E6" mask="url(#path-2-inside-1_20_10)"/>
</svg>
